# xmcd CD database file
#
# Track frame offsets:
#	150
#	24047
#	42575
#
# Disc length: 884 seconds
#
# Revision: 0
# Processed by: cddbd v1.5.1PL0 Copyright (c) Steve Scherf et al.
# Submitted via: CDex 1.40Release
#
DISCID=19037203
DTITLE=ORIGINAL LOVE - 沈黙の薔薇
DYEAR=1900
DGENRE=Trip-Hop
TTITLE0=沈黙の薔薇
TTITLE1=甘く危険な香り
TTITLE2=沈黙の薔薇（インスト）
EXTD=ID3G: 27
EXTT0=
EXTT1=
EXTT2=
PLAYORDER=
